<svg width="20" height="20" viewBox="0 0 20 20" fill="none" xmlns="http://www.w3.org/2000/svg">
<path d="M6.66667 2.58149C6.66667 2.58149 3.36145 2.28495 2.82319 2.82321C2.28492 3.36146 2.58152 6.66667 2.58152 6.66667" stroke="#606060" stroke-width="1.2" stroke-linecap="round" stroke-linejoin="round"/>
<path d="M6.66667 17.4184C6.66667 17.4184 3.36145 17.715 2.82319 17.1768C2.28492 16.6384 2.58152 13.3333 2.58152 13.3333" stroke="#606060" stroke-width="1.2" stroke-linecap="round" stroke-linejoin="round"/>
<path d="M13.3333 2.58149C13.3333 2.58149 16.6385 2.28495 17.1768 2.82321C17.715 3.36146 17.4184 6.66667 17.4184 6.66667" stroke="#606060" stroke-width="1.2" stroke-linecap="round" stroke-linejoin="round"/>
<path d="M13.3333 17.4184C13.3333 17.4184 16.6385 17.715 17.1768 17.1768C17.715 16.6384 17.4184 13.3333 17.4184 13.3333" stroke="#606060" stroke-width="1.2" stroke-linecap="round" stroke-linejoin="round"/>
<path d="M11.6758 8.33214L16.7189 3.28906" stroke="#606060" stroke-width="1.2" stroke-linecap="round" stroke-linejoin="round"/>
<path d="M8.33071 11.6687L3.03296 16.984" stroke="#606060" stroke-width="1.2" stroke-linecap="round" stroke-linejoin="round"/>
<path d="M8.33118 8.33541L3.20483 3.21582" stroke="#606060" stroke-width="1.2" stroke-linecap="round" stroke-linejoin="round"/>
<path d="M11.6497 11.6687L17.1067 17.082" stroke="#606060" stroke-width="1.2" stroke-linecap="round" stroke-linejoin="round"/>
</svg>
