<svg width="20" height="20" viewBox="0 0 20 20" fill="none" xmlns="http://www.w3.org/2000/svg">
<path d="M11.8581 14.9957C11.8493 14.3707 11.42 12.3011 11.8588 11.8623C12.2976 11.4237 14.3665 11.854 14.9913 11.863M17.4996 17.4985L12.1789 12.1789" stroke="#606060" stroke-width="1.2" stroke-linecap="round" stroke-linejoin="round"/>
<path d="M8.14126 14.9954C8.15001 14.3705 8.57933 12.3009 8.14059 11.8621C7.70181 11.4234 5.63288 11.8538 5.00812 11.8627M2.49976 17.4982L7.82041 12.1787" stroke="#606060" stroke-width="1.2" stroke-linecap="round" stroke-linejoin="round"/>
<path d="M5.00622 8.13436C5.63099 8.14234 7.70061 8.56925 8.1387 8.12979C8.57675 7.69036 8.14386 5.62143 8.13413 4.99652M7.81413 7.80611L2.50146 2.50195" stroke="#606060" stroke-width="1.2" stroke-linecap="round" stroke-linejoin="round"/>
<path d="M14.9929 8.13436C14.3682 8.14234 12.2986 8.56925 11.8604 8.12979C11.4224 7.69036 11.8553 5.62143 11.865 4.99652M12.185 7.80611L17.4977 2.50195" stroke="#606060" stroke-width="1.2" stroke-linecap="round" stroke-linejoin="round"/>
</svg>
