<svg width="38" height="38" viewBox="0 0 38 38" fill="none" xmlns="http://www.w3.org/2000/svg">
<rect width="38" height="38" rx="19" fill="#222222"/>
<path d="M21.75 9.83331L22.2438 12.0256C22.6628 13.8851 24.1149 15.3373 25.9744 15.7561L28.1667 16.25L25.9744 16.7438C24.1149 17.1627 22.6628 18.6148 22.2438 20.4743L21.75 22.6666L21.2562 20.4743C20.8373 18.6148 19.3852 17.1627 17.5257 16.7438L15.3334 16.25L17.5257 15.7561C19.3851 15.3373 20.8373 13.8851 21.2562 12.0256L21.75 9.83331Z" fill="white" stroke="white" stroke-width="1.5" stroke-linejoin="round"/>
<path d="M14.4167 19L14.7694 20.5659C15.0686 21.8941 16.1059 22.9314 17.4341 23.2306L19 23.5833L17.4341 23.9361C16.1059 24.2353 15.0686 25.2725 14.7694 26.6007L14.4167 28.1667L14.064 26.6007C13.7648 25.2725 12.7275 24.2353 11.3993 23.9361L9.83337 23.5833L11.3993 23.2306C12.7275 22.9314 13.7648 21.8942 14.064 20.5659L14.4167 19Z" fill="white" stroke="white" stroke-width="1.5" stroke-linejoin="round"/>
</svg>
