<svg width="18" height="18" viewBox="0 0 18 18" fill="none" xmlns="http://www.w3.org/2000/svg">
<path d="M15 7.5C14.9731 5.64032 14.8351 4.58599 14.1274 3.87868C13.2482 3 11.8332 3 9.00323 3C6.1733 3 4.75832 3 3.87916 3.87868C3 4.75736 3 6.17157 3 9C3 11.8284 3 13.2427 3.87916 14.1213C4.67659 14.9183 5.91485 14.9924 8.25 14.9993" stroke="#606060" stroke-width="1.2" stroke-linecap="round" stroke-linejoin="round"/>
<path d="M13.5 14.7857V15.75M13.5 14.7857C12.6324 14.7857 11.8681 14.3596 11.4197 13.7125M13.5 14.7857C14.3676 14.7857 15.1319 14.3596 15.5803 13.7125M11.4197 13.7125L10.5003 14.3035M11.4197 13.7125C11.1546 13.3298 11 12.8698 11 12.375C11 11.8802 11.1545 11.4203 11.4197 11.0377M15.5803 13.7125L16.4997 14.3035M15.5803 13.7125C15.8454 13.3298 16 12.8698 16 12.375C16 11.8802 15.8455 11.4203 15.5803 11.0377M13.5 9.96427C14.3677 9.96427 15.1321 10.3905 15.5803 11.0377M13.5 9.96427C12.6323 9.96427 11.8679 10.3905 11.4197 11.0377M13.5 9.96427V9M15.5803 11.0377L16.5 10.4465M11.4197 11.0377L10.5 10.4465" stroke="#606060" stroke-width="1.2" stroke-linecap="round"/>
<path d="M7.125 1.5V3" stroke="#606060" stroke-width="1.2" stroke-linecap="round" stroke-linejoin="round"/>
<path d="M10.875 1.5V3" stroke="#606060" stroke-width="1.2" stroke-linecap="round" stroke-linejoin="round"/>
<path d="M7.125 15V16.5" stroke="#606060" stroke-width="1.2" stroke-linecap="round" stroke-linejoin="round"/>
<path d="M3 7.125H1.5" stroke="#606060" stroke-width="1.2" stroke-linecap="round" stroke-linejoin="round"/>
<path d="M3 10.875H1.5" stroke="#606060" stroke-width="1.2" stroke-linecap="round" stroke-linejoin="round"/>
<path d="M16.5 7.125H15" stroke="#606060" stroke-width="1.2" stroke-linecap="round" stroke-linejoin="round"/>
<path d="M9 6H6" stroke="#606060" stroke-width="1.2" stroke-linecap="round" stroke-linejoin="round"/>
</svg>
