<svg width="71" height="70" viewBox="0 0 71 70" fill="none" xmlns="http://www.w3.org/2000/svg">
<circle cx="35.5" cy="35" r="35" fill="#FFE0EB"/>
<g clip-path="url(#clip0_106_229)">
<path d="M36.379 35.8783V20C27.8739 20.4461 20.9468 27.3731 20.5007 35.8783H36.379ZM32.8635 33.2416H31.1058V31.4839H32.8635V33.2416ZM27.5903 27.9684H29.348V29.7262H27.5903V27.9684ZM31.9846 27.6045L33.2274 28.8473L28.4692 33.6056L27.2264 32.3628L31.9846 27.6045Z" fill="#FF82AC"/>
<path d="M36.379 37.636H25.8661C26.2944 43.2371 30.778 47.7206 36.3791 48.1489V37.636H36.379Z" fill="#FF82AC"/>
<path d="M38.1366 23.5155C38.1366 23.7043 38.1366 50.2063 38.1366 49.9988C44.996 49.5432 50.4994 43.6422 50.4994 36.6693C50.4994 29.6959 44.9977 23.9695 38.1366 23.5155ZM43.4098 35.8782C44.8637 35.8782 46.0464 37.061 46.0464 38.5149C46.0464 39.6591 45.3095 40.6256 44.2887 40.9896V42.9092H42.531V40.9896C41.5102 40.6256 40.7732 39.6591 40.7732 38.5149H42.531C42.531 38.9998 42.9249 39.3937 43.4098 39.3937C43.8947 39.3937 44.2887 38.9998 44.2887 38.5149C44.2887 38.03 43.8947 37.636 43.4098 37.636C41.9559 37.636 40.7732 36.4533 40.7732 34.9994C40.7732 33.8551 41.5102 32.8887 42.531 32.5247V30.605H44.2887V32.5247C45.3095 32.8887 46.0464 33.8551 46.0464 34.9994H44.2887C44.2887 34.5145 43.8947 34.1205 43.4098 34.1205C42.9249 34.1205 42.531 34.5145 42.531 34.9994C42.531 35.4843 42.9249 35.8782 43.4098 35.8782Z" fill="#FF82AC"/>
</g>
<defs>
<clipPath id="clip0_106_229">
<rect width="30" height="30" fill="white" transform="translate(20.5 20)"/>
</clipPath>
</defs>
</svg>
