<svg width="71" height="70" viewBox="0 0 71 70" fill="none" xmlns="http://www.w3.org/2000/svg">
<circle cx="35.5" cy="35" r="35" fill="#E7EDFF"/>
<g clip-path="url(#clip0_106_205)">
<path d="M50.2259 25.8999L44.6011 20.275C44.333 20.0069 43.9299 19.9263 43.5793 20.0725C43.2286 20.2188 42.9999 20.5581 42.9999 20.9369V23.7493H30.8128C25.1167 23.7493 20.5006 28.3654 20.5006 34.0615C20.5006 34.579 20.9206 34.9989 21.4381 34.9989H25.188C25.7054 34.9989 26.1254 34.579 26.1254 34.0615C26.1254 31.4722 28.2235 29.3741 30.8128 29.3741H42.9999V32.1865C42.9999 32.5653 43.2286 32.9084 43.5793 33.0528C43.9299 33.199 44.333 33.1184 44.6011 32.8503L50.2259 27.2254C50.5915 26.8598 50.5915 26.2655 50.2259 25.8999Z" fill="#396AFF"/>
<path d="M49.5621 34.9991H45.8122C45.2947 34.9991 44.8747 35.4191 44.8747 35.9366C44.8747 38.5259 42.7766 40.624 40.1874 40.624H28.0002V37.8116C28.0002 37.4328 27.7715 37.0897 27.4209 36.9453C27.0703 36.801 26.669 36.8816 26.399 37.1497L20.7742 42.7745C20.4086 43.1402 20.4086 43.7345 20.7742 44.1001L26.399 49.725C26.6672 49.9931 27.0703 50.0737 27.4209 49.9275C27.7715 49.7812 28.0002 49.44 28.0002 49.0612V46.2488H40.1874C45.8834 46.2488 50.4995 41.6327 50.4995 35.9366C50.4995 35.4191 50.0795 34.9991 49.5621 34.9991Z" fill="#396AFF"/>
</g>
<defs>
<clipPath id="clip0_106_205">
<rect width="30" height="30" fill="white" transform="translate(20.5 20)"/>
</clipPath>
</defs>
</svg>
