<svg width="38" height="38" viewBox="0 0 38 38" fill="none" xmlns="http://www.w3.org/2000/svg">
<rect width="38" height="38" rx="19" fill="#222222"/>
<path d="M18.25 26C18.25 26.4142 18.5858 26.75 19 26.75C19.4142 26.75 19.75 26.4142 19.75 26H18.25ZM19.5303 11.4697C19.2374 11.1768 18.7626 11.1768 18.4697 11.4697L13.6967 16.2426C13.4038 16.5355 13.4038 17.0104 13.6967 17.3033C13.9896 17.5962 14.4645 17.5962 14.7574 17.3033L19 13.0607L23.2426 17.3033C23.5355 17.5962 24.0104 17.5962 24.3033 17.3033C24.5962 17.0104 24.5962 16.5355 24.3033 16.2426L19.5303 11.4697ZM19.75 26L19.75 12H18.25L18.25 26H19.75Z" fill="white"/>
</svg>
